<svg width="32" height="32" viewBox="0 0 32 32" fill="none" xmlns="http://www.w3.org/2000/svg">
<path d="M23.5453 22.2089L23.8988 22.5625L23.8988 22.5625L23.5453 22.2089ZM17.8879 27.8663L18.2413 28.22L18.2415 28.2198L17.8879 27.8663ZM14.1186 27.8663L13.7651 28.2199L13.7652 28.22L14.1186 27.8663ZM8.45994 22.2089L8.10638 22.5625L8.10643 22.5625L8.45994 22.2089ZM11.5026 14.6663C11.5026 15.8597 11.9767 17.0043 12.8206 17.8482L13.5277 17.1411C12.8714 16.4848 12.5026 15.5945 12.5026 14.6663H11.5026ZM12.8206 17.8482C13.6645 18.6922 14.8091 19.1663 16.0026 19.1663V18.1663C15.0743 18.1663 14.1841 17.7975 13.5277 17.1411L12.8206 17.8482ZM16.0026 19.1663C17.1961 19.1663 18.3407 18.6922 19.1846 17.8482L18.4775 17.1411C17.8211 17.7975 16.9309 18.1663 16.0026 18.1663V19.1663ZM19.1846 17.8482C20.0285 17.0043 20.5026 15.8597 20.5026 14.6663H19.5026C19.5026 15.5945 19.1339 16.4848 18.4775 17.1411L19.1846 17.8482ZM20.5026 14.6663C20.5026 13.4728 20.0285 12.3282 19.1846 11.4843L18.4775 12.1914C19.1339 12.8478 19.5026 13.738 19.5026 14.6663H20.5026ZM19.1846 11.4843C18.3407 10.6404 17.1961 10.1663 16.0026 10.1663V11.1663C16.9309 11.1663 17.8211 11.535 18.4775 12.1914L19.1846 11.4843ZM16.0026 10.1663C14.8091 10.1663 13.6645 10.6404 12.8206 11.4843L13.5277 12.1914C14.1841 11.535 15.0743 11.1663 16.0026 11.1663V10.1663ZM12.8206 11.4843C11.9767 12.3282 11.5026 13.4728 11.5026 14.6663H12.5026C12.5026 13.738 12.8714 12.8478 13.5277 12.1914L12.8206 11.4843ZM23.1917 21.8554L17.5344 27.5127L18.2415 28.2198L23.8988 22.5625L23.1917 21.8554ZM17.5346 27.5125C17.1283 27.9184 16.5775 28.1464 16.0033 28.1464V29.1464C16.8426 29.1464 17.6475 28.8132 18.2413 28.22L17.5346 27.5125ZM16.0033 28.1464C15.429 28.1464 14.8783 27.9184 14.472 27.5125L13.7652 28.22C14.359 28.8132 15.164 29.1464 16.0033 29.1464V28.1464ZM14.4721 27.5127L8.81345 21.8553L8.10643 22.5625L13.7651 28.2199L14.4721 27.5127ZM8.81351 21.8554C7.39172 20.4335 6.42349 18.622 6.03125 16.6499L5.05046 16.845C5.48129 19.0111 6.54475 21.0008 8.10638 22.5625L8.81351 21.8554ZM6.03125 16.6499C5.63901 14.6778 5.84038 12.6336 6.60988 10.7759L5.68601 10.3932C4.84081 12.4336 4.61964 14.6789 5.05046 16.845L6.03125 16.6499ZM6.60988 10.7759C7.37939 8.91825 8.68248 7.33046 10.3544 6.21336L9.7988 5.38188C7.96247 6.60887 6.5312 8.35283 5.68601 10.3932L6.60988 10.7759ZM10.3544 6.21336C12.0263 5.09625 13.9919 4.5 16.0026 4.5V3.5C13.7941 3.5 11.6351 4.1549 9.7988 5.38188L10.3544 6.21336ZM16.0026 4.5C18.0134 4.5 19.979 5.09625 21.6509 6.21336L22.2064 5.38188C20.3701 4.1549 18.2111 3.5 16.0026 3.5V4.5ZM21.6509 6.21336C23.3227 7.33046 24.6258 8.91825 25.3953 10.7759L26.3192 10.3932C25.474 8.35283 24.0428 6.60887 22.2064 5.38188L21.6509 6.21336ZM25.3953 10.7759C26.1648 12.6336 26.3662 14.6778 25.974 16.6499L26.9548 16.845C27.3856 14.6789 27.1644 12.4336 26.3192 10.3932L25.3953 10.7759ZM25.974 16.6499C25.5817 18.622 24.6135 20.4335 23.1917 21.8554L23.8988 22.5625C25.4605 21.0008 26.5239 19.0111 26.9548 16.845L25.974 16.6499Z" fill="white"/>
</svg>
