<svg width="32" height="32" viewBox="0 0 32 32" fill="none" xmlns="http://www.w3.org/2000/svg">
<path d="M7.84574 5.33398V4.83398V5.33398ZM12.8653 5.33398L13.3296 5.14829C13.2537 4.95846 13.0698 4.83398 12.8653 4.83398V5.33398ZM15.3752 11.6085L15.6324 12.0372C15.8428 11.911 15.9305 11.6507 15.8394 11.4228L15.3752 11.6085ZM12.2379 13.4908L11.9807 13.0621C11.7575 13.196 11.6744 13.4786 11.7895 13.712L12.2379 13.4908ZM18.5124 19.7654L18.2913 20.2138C18.5246 20.3289 18.8073 20.2457 18.9412 20.0226L18.5124 19.7654ZM20.3948 16.6281L20.5805 16.1639C20.3526 16.0727 20.0923 16.1604 19.966 16.3709L20.3948 16.6281ZM26.6693 19.1379H27.1693C27.1693 18.9335 27.0448 18.7496 26.855 18.6737L26.6693 19.1379ZM24.1595 26.6673L24.1291 27.1664C24.1392 27.167 24.1494 27.1673 24.1595 27.1673V26.6673ZM5.33594 7.84379H4.83594C4.83594 7.85391 4.83624 7.86402 4.83686 7.87412L5.33594 7.84379ZM7.84574 5.83398H12.8653V4.83398H7.84574V5.83398ZM12.4011 5.51968L14.9109 11.7942L15.8394 11.4228L13.3296 5.14829L12.4011 5.51968ZM15.1179 11.1797L11.9807 13.0621L12.4951 13.9196L15.6324 12.0372L15.1179 11.1797ZM11.7895 13.712C13.1821 16.5358 15.4675 18.8212 18.2913 20.2138L18.7336 19.3169C16.1072 18.0217 13.9816 15.896 12.6863 13.2697L11.7895 13.712ZM18.9412 20.0226L20.8235 16.8854L19.966 16.3709L18.0837 19.5081L18.9412 20.0226ZM20.2091 17.0923L26.4836 19.6021L26.855 18.6737L20.5805 16.1639L20.2091 17.0923ZM26.1693 19.1379V24.1575H27.1693V19.1379H26.1693ZM26.1693 24.1575C26.1693 24.6905 25.9575 25.2017 25.5806 25.5787L26.2877 26.2858C26.8522 25.7213 27.1693 24.9558 27.1693 24.1575H26.1693ZM25.5806 25.5787C25.2037 25.9556 24.6925 26.1673 24.1595 26.1673V27.1673C24.9577 27.1673 25.7233 26.8502 26.2877 26.2858L25.5806 25.5787ZM24.1898 26.1682C19.4167 25.8782 14.9147 23.8512 11.5334 20.4699L10.8262 21.177C14.3803 24.7311 19.1122 26.8615 24.1291 27.1664L24.1898 26.1682ZM11.5334 20.4699C8.15201 17.0886 6.12508 12.5866 5.83502 7.81346L4.83686 7.87412C5.14174 12.8911 7.27219 17.623 10.8262 21.177L11.5334 20.4699ZM5.83594 7.84379C5.83594 7.31076 6.04768 6.79955 6.4246 6.42264L5.71749 5.71554C5.15304 6.27998 4.83594 7.04554 4.83594 7.84379H5.83594ZM6.4246 6.42264C6.80151 6.04573 7.31271 5.83398 7.84574 5.83398V4.83398C7.04749 4.83398 6.28194 5.15109 5.71749 5.71554L6.4246 6.42264Z" fill="white"/>
</svg>
